<svg width="828" height="153" viewBox="0 0 828 153" fill="none" xmlns="http://www.w3.org/2000/svg">
<style>
  .text-color {
    fill: #09090B;
  }

  @media (prefers-color-scheme: dark) {
    .text-color {
      fill: #FAFAFA;
    }
  }
</style>
<path d="M82.3022 29.5349C80.9091 32.6273 79.8108 35.8228 79.0313 39H66.9375C66.143 35.7621 65.0175 32.5049 63.5864 29.3574L47.0194 25.0474L30.7731 29.3241C27.7799 35.91 26.1563 43.1669 26.1563 50.3437V86.7656C26.1563 88.875 24.4688 90.5625 22.3594 90.5625H12.3281C10.4063 90.5625 9 92.4375 9.51563 94.3125C10.0593 96.2386 10.6887 98.1286 11.3993 99.9787L73.0547 122.697L134.668 99.9731C135.377 98.1248 136.005 96.2367 136.547 94.3125C137.063 92.4375 135.656 90.5625 133.688 90.5625H123.656C121.547 90.5625 119.859 88.875 119.859 86.7656V50.3437C119.859 43.2793 118.276 36.1144 115.349 29.5888L98.6292 25.0474L82.3022 29.5349Z" fill="#FF822D"/>
<path d="M47.7656 20.1565C53.9063 25.6409 58.2188 32.8596 60.1406 40.7815C48.7969 44.0159 39.2344 51.3754 33.1407 61.2192V50.2504C33.1407 38.6721 38.1094 27.7971 46.5938 20.1565C46.9219 19.8752 47.4375 19.8752 47.7656 20.1565Z" fill="#FF6723"/>
<path d="M112.828 50.3433V61.1714C106.781 51.3745 97.1719 44.0154 85.7812 40.781C87.7031 32.8591 91.9688 25.6873 98.1094 20.2029C98.4375 19.9216 98.9531 19.9216 99.2813 20.2029C107.859 27.7966 112.828 38.7185 112.828 50.3433Z" fill="#FF6723"/>
<path d="M134.672 99.8906H104.391C96.1875 99.8906 88.1718 102.469 81.5156 107.25L73.0312 113.297L64.5468 107.25C57.8906 102.469 49.875 99.8906 41.6718 99.8906H11.3436C20.7655 124.594 44.6718 142.125 72.6562 142.125H72.9843H73.3125C101.344 142.078 125.25 124.547 134.672 99.8906Z" fill="#FFDEA7"/>
<path d="M63.6562 29.3906C60.6094 22.6875 56.1563 16.5 50.5781 12C49.6406 11.25 48.4688 10.875 47.2969 10.875C46.125 10.875 44.9531 11.25 44.0156 12C38.3438 16.5469 33.7969 22.5937 30.75 29.3906H63.6562Z" fill="#212121"/>
<path d="M102 12C101.063 11.25 99.8906 10.875 98.7188 10.875C97.5469 10.875 96.375 11.25 95.4375 12C89.8125 16.5469 85.3125 22.8281 82.2656 29.625H115.406C112.313 22.7344 107.766 16.5938 102 12Z" fill="#212121"/>
<path d="M51.5625 85.875C51.5625 83.2861 53.6611 81.1875 56.25 81.1875C58.8389 81.1875 60.9375 83.2861 60.9375 85.875V90.5625C60.9375 93.1514 58.8389 95.25 56.25 95.25C53.6611 95.25 51.5625 93.1514 51.5625 90.5625V85.875Z" fill="#212121"/>
<path d="M84.375 85.875C84.375 83.2861 86.4736 81.1875 89.0625 81.1875C91.6514 81.1875 93.75 83.2861 93.75 85.875V90.5625C93.75 93.1514 91.6514 95.25 89.0625 95.25C86.4736 95.25 84.375 93.1514 84.375 90.5625V85.875Z" fill="#212121"/>
<path d="M73.0313 121.641C75.5625 125.484 79.9688 128.063 84.9375 128.063C86.2031 128.063 87.2344 127.031 87.2344 125.719C87.2344 124.406 86.2031 123.375 84.8906 123.375C79.6406 123.375 75.3281 119.109 75.3281 113.812C75.3281 113.429 75.24 113.07 75.083 112.753C75.3708 112.582 75.6427 112.373 75.8906 112.125L81.1875 106.828C83.7656 104.25 81.9375 99.8906 78.3281 99.8906H67.7344C64.0781 99.8906 62.25 104.25 64.8281 106.828L70.125 112.125C70.3622 112.363 70.6219 112.565 70.8966 112.732C70.7325 113.053 70.6406 113.42 70.6406 113.812C70.6406 119.062 66.375 123.375 61.0781 123.375C59.7656 123.375 58.7344 124.406 58.7344 125.719C58.7344 127.031 59.7656 128.063 61.0781 128.063C66.0469 128.063 70.4531 125.484 73.0313 121.641Z" fill="#212121"/>
<path d="M193.938 122V31.8125H210.062V108.438H250.938V122H193.938ZM292.162 123.562C283.371 123.562 275.767 121.667 269.35 117.875C262.975 114.083 258.037 108.708 254.537 101.75C251.079 94.75 249.35 86.4792 249.35 76.9375V76.8125C249.35 67.2708 251.1 59.0208 254.6 52.0625C258.1 45.1042 263.037 39.7292 269.412 35.9375C275.829 32.1458 283.412 30.25 292.162 30.25C300.912 30.25 308.475 32.1458 314.85 35.9375C321.267 39.7292 326.204 45.1042 329.662 52.0625C333.162 59.0208 334.912 67.2708 334.912 76.8125V76.9375C334.912 86.4792 333.162 94.75 329.662 101.75C326.204 108.708 321.287 114.083 314.912 117.875C308.537 121.667 300.954 123.562 292.162 123.562ZM292.162 109.625C297.621 109.625 302.308 108.292 306.225 105.625C310.183 102.917 313.225 99.125 315.35 94.25C317.475 89.3333 318.537 83.5625 318.537 76.9375V76.8125C318.537 70.1458 317.454 64.375 315.287 59.5C313.162 54.5833 310.121 50.8125 306.162 48.1875C302.204 45.5208 297.537 44.1875 292.162 44.1875C286.829 44.1875 282.162 45.5208 278.162 48.1875C274.204 50.8125 271.142 54.5625 268.975 59.4375C266.85 64.3125 265.787 70.1042 265.787 76.8125V76.9375C265.787 83.6042 266.85 89.3958 268.975 94.3125C271.142 99.1875 274.204 102.958 278.162 105.625C282.121 108.292 286.787 109.625 292.162 109.625ZM381.012 123.562C374.429 123.562 368.512 122.5 363.262 120.375C358.012 118.208 353.533 115.083 349.825 111C346.117 106.917 343.262 101.979 341.262 96.1875C339.304 90.3542 338.325 83.8125 338.325 76.5625V76.5C338.325 66.9167 340.054 58.6875 343.512 51.8125C346.971 44.8958 351.867 39.5833 358.2 35.875C364.575 32.125 372.075 30.25 380.7 30.25C387.825 30.25 394.075 31.5208 399.45 34.0625C404.825 36.5625 409.2 40 412.575 44.375C415.992 48.7083 418.262 53.6458 419.387 59.1875L419.637 60.25H403.325L403.075 59.5625C401.367 54.7292 398.596 50.9583 394.762 48.25C390.971 45.5417 386.304 44.1875 380.762 44.1875C375.346 44.1875 370.7 45.4583 366.825 48C362.95 50.5417 359.971 54.2292 357.887 59.0625C355.804 63.8542 354.762 69.625 354.762 76.375V76.4375C354.762 81.6042 355.367 86.25 356.575 90.375C357.783 94.4583 359.533 97.9375 361.825 100.812C364.158 103.646 366.95 105.833 370.2 107.375C373.45 108.875 377.117 109.625 381.2 109.625C385.742 109.625 389.742 108.75 393.2 107C396.7 105.25 399.429 102.792 401.387 99.625C403.387 96.4583 404.429 92.7708 404.512 88.5625L404.575 87.1875H382.2V74.625H420.325V84.375C420.325 90.4583 419.429 95.9167 417.637 100.75C415.887 105.583 413.304 109.708 409.887 113.125C406.512 116.5 402.387 119.083 397.512 120.875C392.679 122.667 387.179 123.562 381.012 123.562ZM427.113 122V31.8125H443.238V122H427.113ZM447.525 122L480.65 70.8125L476.962 83.6875V76.375L447.775 31.8125H466.775L487.775 65.75H495.15L484.712 71.8125L509.337 31.8125H527.4L497.275 76.8125V84.125L493.462 71.25L526.9 122H508.337L487.025 88.8125H479.587L490.275 82.875L465.087 122H447.525ZM531.688 122V31.8125H547.812V108.438H588.688V122H531.688ZM605.663 122V86.4375L574.038 31.8125H591.663L613.475 71.0625H613.913L635.725 31.8125H653.35L621.725 86.4375V122H605.663ZM683.075 123.562C676.158 123.562 670.117 122.521 664.95 120.438C659.783 118.354 655.7 115.375 652.7 111.5C649.742 107.625 648.075 103 647.7 97.625L647.638 96.6875H663.013L663.138 97.4375C663.596 100.021 664.721 102.25 666.513 104.125C668.304 106 670.658 107.458 673.575 108.5C676.533 109.5 679.888 110 683.638 110C687.429 110 690.7 109.479 693.45 108.438C696.242 107.396 698.388 105.917 699.888 104C701.388 102.042 702.138 99.7708 702.138 97.1875V97.125C702.138 93.75 700.867 91.0833 698.325 89.125C695.825 87.1667 691.658 85.5625 685.825 84.3125L676.138 82.3125C667.304 80.4792 660.679 77.4792 656.263 73.3125C651.846 69.1042 649.638 63.6458 649.638 56.9375V56.875C649.679 51.5417 651.117 46.8958 653.95 42.9375C656.825 38.9375 660.783 35.8333 665.825 33.625C670.867 31.375 676.617 30.25 683.075 30.25C689.617 30.25 695.346 31.3333 700.263 33.5C705.179 35.6667 709.033 38.6875 711.825 42.5625C714.658 46.4375 716.221 50.9375 716.513 56.0625L716.575 57.125H701.2L701.075 56.3125C700.7 53.6875 699.721 51.4583 698.138 49.625C696.554 47.75 694.471 46.3125 691.888 45.3125C689.304 44.3125 686.325 43.8125 682.95 43.8125C679.45 43.8125 676.408 44.3333 673.825 45.375C671.283 46.375 669.304 47.7917 667.888 49.625C666.513 51.4583 665.825 53.5833 665.825 56V56.0625C665.825 59.2292 667.096 61.8125 669.638 63.8125C672.221 65.7708 676.221 67.3125 681.638 68.4375L691.325 70.4375C697.617 71.7292 702.742 73.4792 706.7 75.6875C710.658 77.8958 713.575 80.6667 715.45 84C717.367 87.3333 718.325 91.3333 718.325 96V96.0625C718.325 101.646 716.908 106.5 714.075 110.625C711.283 114.75 707.242 117.938 701.95 120.188C696.7 122.438 690.408 123.562 683.075 123.562ZM723.987 122V31.8125H740.112V122H723.987ZM743.338 122L775.588 31.8125H789.15V47.875H784.463L760.213 122H743.338ZM759.65 98.6875L763.963 86.25H805.275L809.588 98.6875H759.65ZM809.025 122L784.775 47.875V31.8125H793.713L825.9 122H809.025Z" class="text-color"/>
</svg>
