<svg width="930" height="166" viewBox="0 0 930 166" fill="none" xmlns="http://www.w3.org/2000/svg">
<g clip-path="url(#clip0_42_169)">
<path d="M134.958 131.121L109.922 106.139C104.176 100.405 108.25 90.6054 116.371 90.6054H152V75.4366H116.371C108.25 75.4366 104.176 65.6372 109.922 59.9033L135.113 34.7668L124.365 24.028L92.234 56.0901C83.2705 65.0343 68.7435 65.0343 59.78 56.0901L27.607 24L16.8592 34.7247L42.0919 59.9033C47.8381 65.6372 43.7637 75.4366 35.6432 75.4366H0V90.6054H35.6292C43.7497 90.6054 47.824 100.405 42.0778 106.139L16.8733 131.289L27.621 142.014L59.7519 109.952C68.7154 101.008 83.2424 101.008 92.2059 109.952L124.182 141.86L134.93 131.135L134.958 131.121Z" fill="#09090B"/>
</g>
<path d="M198.24 128V37.12H214.88V113.536H258.016V128H198.24ZM307.271 130.048C298.226 130.048 290.46 128.128 283.975 124.288C277.575 120.448 272.626 115.029 269.127 108.032C265.628 100.949 263.879 92.5013 263.879 82.688C263.879 72.8747 265.628 64.4267 269.127 57.344C272.626 50.176 277.575 44.672 283.975 40.832C290.46 36.992 298.226 35.072 307.271 35.072C316.316 35.072 324.082 36.992 330.567 40.832C337.052 44.672 342.002 50.176 345.415 57.344C348.914 64.4267 350.663 72.8747 350.663 82.688C350.663 92.5013 348.914 100.949 345.415 108.032C342.002 115.029 337.052 120.448 330.567 124.288C324.082 128.128 316.316 130.048 307.271 130.048ZM307.271 115.584C315.463 115.584 321.863 112.725 326.471 107.008C331.079 101.205 333.383 93.0987 333.383 82.688C333.383 72.2773 331.079 64.1707 326.471 58.368C321.863 52.48 315.463 49.536 307.271 49.536C299.079 49.536 292.679 52.48 288.071 58.368C283.463 64.1707 281.159 72.2773 281.159 82.688C281.159 93.0987 283.463 101.205 288.071 107.008C292.679 112.725 299.079 115.584 307.271 115.584ZM403.229 130.048C394.525 130.048 387.058 128.043 380.829 124.032C374.685 119.936 369.949 114.347 366.621 107.264C363.293 100.181 361.629 91.9893 361.629 82.688C361.629 73.5573 363.293 65.408 366.621 58.24C370.034 51.072 374.898 45.44 381.213 41.344C387.528 37.1627 395.122 35.072 403.997 35.072C411.677 35.072 418.162 36.3947 423.453 39.04C428.744 41.6853 432.925 45.3547 435.997 50.048C439.154 54.7413 441.373 60.16 442.653 66.304L425.373 67.2C424.349 61.824 422.173 57.5573 418.845 54.4C415.602 51.1573 410.696 49.536 404.125 49.536C398.322 49.536 393.544 51.0293 389.789 54.016C386.12 57.0027 383.389 61.0133 381.597 66.048C379.805 70.9973 378.909 76.544 378.909 82.688C378.909 89.0027 379.805 94.6347 381.597 99.584C383.389 104.533 386.162 108.459 389.917 111.36C393.672 114.176 398.493 115.584 404.381 115.584C408.818 115.584 412.658 114.645 415.901 112.768C419.229 110.891 421.789 108.331 423.581 105.088C425.458 101.845 426.525 98.176 426.781 94.08H404.253V81.152H442.909V128H432.157L431.517 114.304C429.213 119.083 425.501 122.923 420.381 125.824C415.261 128.64 409.544 130.048 403.229 130.048ZM459.24 128V37.12H475.88V128H459.24ZM489.709 128L520.173 82.432L489.965 37.12H509.293L530.413 69.76L551.149 37.12H570.477L540.269 82.176L570.861 128H551.533L530.157 94.848L509.037 128H489.709ZM582.49 128V37.12H599.13V113.536H642.266V128H582.49ZM671.816 128V92.16L639.944 37.12H658.632L680.136 75.776L701.512 37.12H720.2L688.456 92.16V128H671.816ZM762.297 130.048C754.702 130.048 748.174 128.725 742.713 126.08C737.252 123.435 732.942 119.765 729.785 115.072C726.713 110.293 724.921 104.747 724.409 98.432L741.305 97.408C742.158 103.296 744.334 107.819 747.833 110.976C751.332 114.133 756.238 115.712 762.553 115.712C767.844 115.712 771.982 114.731 774.969 112.768C777.956 110.72 779.449 107.776 779.449 103.936C779.449 101.632 778.894 99.584 777.785 97.792C776.676 96 774.5 94.336 771.257 92.8C768.1 91.264 763.449 89.7707 757.305 88.32C749.796 86.6133 743.737 84.6933 739.129 82.56C734.606 80.3413 731.321 77.6107 729.273 74.368C727.31 71.04 726.329 66.9013 726.329 61.952C726.329 56.6613 727.609 52.0107 730.169 48C732.814 43.904 736.569 40.7467 741.433 38.528C746.382 36.224 752.27 35.072 759.097 35.072C766.265 35.072 772.366 36.3947 777.401 39.04C782.521 41.6 786.532 45.1413 789.433 49.664C792.334 54.1867 794.084 59.392 794.681 65.28L777.913 66.048C777.316 61.0987 775.396 57.088 772.153 54.016C768.996 50.944 764.558 49.408 758.841 49.408C753.977 49.408 750.137 50.5173 747.321 52.736C744.59 54.9547 743.225 57.8133 743.225 61.312C743.225 63.7867 743.78 65.8347 744.889 67.456C746.084 69.0773 748.174 70.4853 751.161 71.68C754.148 72.8747 758.329 74.0693 763.705 75.264C771.897 77.056 778.34 79.2747 783.033 81.92C787.812 84.48 791.225 87.5093 793.273 91.008C795.321 94.5067 796.345 98.5173 796.345 103.04C796.345 108.587 794.937 113.408 792.121 117.504C789.305 121.515 785.337 124.629 780.217 126.848C775.097 128.981 769.124 130.048 762.297 130.048ZM810.49 128V37.12H827.13V128H810.49ZM840.319 128L873.087 37.12H893.439L926.207 128H908.799L901.247 106.496H865.279L857.727 128H840.319ZM870.143 92.288H896.383L883.327 53.888L870.143 92.288Z" fill="#09090B"/>
<defs>
<clipPath id="clip0_42_169">
<rect width="152" height="118" fill="white" transform="translate(0 24)"/>
</clipPath>
</defs>
</svg>
